<svg height="480pt" viewBox="-48 0 480 480" width="480pt" xmlns="http://www.w3.org/2000/svg"><path d="m360 48h-312l-48-24 48-24h312c13.257812 0 24 10.742188 24 24s-10.742188 24-24 24zm0 0" fill="#d46b69"/><path d="m360 0h-312l-32 16 32 16h312c10.433594 0 19.222656-6.695312 22.527344-16-3.304688-9.304688-12.09375-16-22.527344-16zm0 0" fill="#ed7775"/><path d="m304 0h32v48h-32zm0 0" fill="#bab8b9"/><path d="m304 0h32v32h-32zm0 0" fill="#d9d7d8"/><path d="m48 48-48-24 48-24" fill="#bab8b9"/><path d="m32 192h352v288h-352zm0 0" fill="#bab8b9"/><path d="m288 448 64-64h-64zm0 0" fill="#d9d7d8"/><path d="m288 384v64h-288v-288h352v224zm0 0" fill="#efedee"/><g fill="#bab8b9"><path d="m32 256h32v32h-32zm0 0"/><path d="m96 256h32v32h-32zm0 0"/><path d="m160 256h32v32h-32zm0 0"/><path d="m224 256h32v32h-32zm0 0"/><path d="m288 256h32v32h-32zm0 0"/><path d="m224 192h32v32h-32zm0 0"/><path d="m288 192h32v32h-32zm0 0"/><path d="m32 320h32v32h-32zm0 0"/><path d="m96 320h32v32h-32zm0 0"/><path d="m32 384h32v32h-32zm0 0"/><path d="m96 384h32v32h-32zm0 0"/><path d="m160 320h32v32h-32zm0 0"/><path d="m224 320h32v32h-32zm0 0"/><path d="m288 320h32v32h-32zm0 0"/></g><path d="m16 112h320v48h-320zm0 0" fill="#d46b69"/><path d="m16 112h296v48h-296zm0 0" fill="#ed7775"/><path d="m240 80h32v48h-32zm0 0" fill="#e2cb6b"/><path d="m240 80h16v48h-16zm0 0" fill="#f6dc74"/><path d="m160 80h32v48h-32zm0 0" fill="#e2cb6b"/><path d="m160 80h16v48h-16zm0 0" fill="#f6dc74"/><path d="m80 80h32v48h-32zm0 0" fill="#e2cb6b"/><path d="m80 80h16v48h-16zm0 0" fill="#f6dc74"/></svg>