<?xml version="1.0" encoding="utf-8"?>
<!-- Svg Vector Icons : http://www.onlinewebfonts.com/icon -->
<!DOCTYPE svg PUBLIC "-//W3C//DTD SVG 1.1//EN" "http://www.w3.org/Graphics/SVG/1.1/DTD/svg11.dtd">
<svg version="1.1" xmlns="http://www.w3.org/2000/svg" xmlns:xlink="http://www.w3.org/1999/xlink" x="0px" y="0px" viewBox="0 0 1000 1000" enable-background="new 0 0 1000 1000" xml:space="preserve">
<metadata> Svg Vector Icons : http://www.onlinewebfonts.com/icon </metadata>
<g><g><g><path d="M970.7,782.7l-6.6-11.7c-24.8-44.1-82.7-147.2-142.5-235.3c-20.1-29.5-40.3-57-58.6-82c-29.3-39.9-65.7-89.5-66-104.2c2.2-64.7,0.7-217.7,0.2-265h38.2v-67h-483v67h50.7c-0.6,47.3-2,200.3,0.2,264.9c-0.4,14.8-36.8,64.4-66.1,104.3c-18.3,25-38.5,52.5-58.6,82C118.6,623.8,60.7,727,35.9,771.1l-6.6,11.7C3.8,827.7,3.6,889.1,28.5,932c19,32.5,49.4,50.5,85.6,50.5l0,0h771.7h0.1c36.2,0,66.6-17.9,85.5-50.5C996.4,889.1,996.2,827.7,970.7,782.7z M923.5,904.1c-8.8,15.2-21.5,22.9-37.7,22.9H114.1c-16.1,0-28.7-7.7-37.6-22.9c-15-25.8-14.6-66.2,1.1-94l6.6-11.9c24.4-43.4,81.5-145.1,140.1-231.1c19.6-29,39.4-56,57.4-80.4c51.1-69.7,77.8-107.6,76.8-138.9c-2-57.6-0.9-191.4-0.3-249.3h283.5c0.6,57.8,1.7,191.7-0.3,249.3c-1.1,31.3,25.6,69.1,76.7,138.9c17.9,24.5,37.8,51.5,57.4,80.4c58.5,86,115.6,187.7,140,231.1l6.6,11.9C938.1,837.8,938.6,878.3,923.5,904.1z"/><path d="M886.7,788.8c-14.6-25.9-48.6-86.5-83.8-138.2c-9-13.3-17.9-25.6-26.5-37.3c0,0-44.6,18.5-182.1,23.1c-137.5,4.6-160.7,39.3-238.1,32.4c-77.4-7-132.5-55.5-132.5-55.5c-8.6,11.8-17.5,24-26.5,37.3C162,702.3,127.9,763,113.4,788.8l-3.9,6.9c-15,26.5-15.1,62.5-0.5,87.8c11.2,19.1,29,29.6,50.3,29.6h48.4h179.3h226h180.4h47.3c21.3,0,39.1-10.5,50.3-29.6c14.6-25.3,14.5-61.3-0.5-87.8L886.7,788.8z M253.9,797.2c-25.4,0-46-20.6-46-46c0-25.4,20.6-46,46-46c25.4,0,45.9,20.6,45.9,46C299.8,776.6,279.3,797.2,253.9,797.2z M305,876c-9.1,0-16.5-7.3-16.5-16.5c0-9.1,7.4-16.4,16.5-16.4c9,0,16.4,7.3,16.4,16.4C321.4,868.6,314,876,305,876z M449.6,772.1c-15.3,0-27.7-12.4-27.7-27.8c0-15.3,12.4-27.7,27.7-27.7c15.3,0,27.7,12.5,27.7,27.7C477.4,759.7,464.9,772.1,449.6,772.1z M561.1,864.8c-12,0-21.7-9.7-21.7-21.7c0-12,9.7-21.7,21.7-21.7c12,0,21.8,9.7,21.8,21.7C582.8,855,573,864.8,561.1,864.8z M700.6,823.3c-27.3,0-49.5-22.2-49.5-49.6c0-27.3,22.2-49.5,49.5-49.5c27.5,0,49.6,22.2,49.6,49.5C750.2,801.1,728.1,823.3,700.6,823.3z M751.8,876c-9.1,0-16.4-7.3-16.4-16.5c0-9.1,7.4-16.4,16.4-16.4c9.1,0,16.4,7.3,16.4,16.4C768.2,868.6,760.8,876,751.8,876z"/></g></g><g></g><g></g><g></g><g></g><g></g><g></g><g></g><g></g><g></g><g></g><g></g><g></g><g></g><g></g><g></g></g>
</svg>